<svg width="61" height="61" viewBox="0 0 61 61" fill="none" xmlns="http://www.w3.org/2000/svg">
<circle cx="30.5" cy="30.5" r="30.5" fill="black"/>
<path d="M22.52 13.64H31.84C34.3467 13.64 36.16 14.2533 37.28 15.48C38.4267 16.7067 39 18.7067 39 21.48V23C39 26.28 37.8267 28.24 35.48 28.88C36.92 29.2533 37.9333 30.12 38.52 31.48C39.1067 32.84 39.4 34.64 39.4 36.88C39.4 40.5333 38.8533 43.3067 37.76 45.2C36.6667 47.0667 34.6933 48 31.84 48H22.52V13.64ZM30.64 26.56C31.2267 26.56 31.6267 26.3467 31.84 25.92C32.0533 25.4667 32.16 24.84 32.16 24.04V20.6C32.16 19.48 31.6667 18.92 30.68 18.92H29.24V26.56H30.64ZM29.92 41.96C31.7067 41.96 32.6 41.1067 32.6 39.4V35.12C32.6 34.08 32.44 33.2933 32.12 32.76C31.8267 32.2267 31.2933 31.96 30.52 31.96H29.24V41.92L29.92 41.96Z" fill="white"/>
</svg>
